<svg xmlns="http://www.w3.org/2000/svg" width="133" height="36" viewBox="0 0 133 36">
  <metadata><?xpacket begin="﻿" id="W5M0MpCehiHzreSzNTczkc9d"?>
<x:xmpmeta xmlns:x="adobe:ns:meta/" x:xmptk="Adobe XMP Core 5.6-c138 79.159824, 2016/09/14-01:09:01        ">
   <rdf:RDF xmlns:rdf="http://www.w3.org/1999/02/22-rdf-syntax-ns#">
      <rdf:Description rdf:about=""/>
   </rdf:RDF>
</x:xmpmeta>
                                                                                                    
                                                                                                    
                                                                                                    
                                                                                                    
                                                                                                    
                                                                                                    
                                                                                                    
                                                                                                    
                                                                                                    
                                                                                                    
                                                                                                    
                                                                                                    
                                                                                                    
                                                                                                    
                                                                                                    
                                                                                                    
                                                                                                    
                                                                                                    
                                                                                                    
                                                                                                    
                           
<?xpacket end="w"?></metadata>
<defs>
    <style>
      .cls-1 {
        fill: #fff;
        fill-rule: evenodd;
      }
    </style>
  </defs>
  <path id="logo" class="cls-1" d="M81.223,49.614a4.161,4.161,0,0,0-.144-1.32,4.465,4.465,0,0,0-4.624-3.3,3.816,3.816,0,0,0-1.206.286,6.3,6.3,0,0,0-1.789,1.173c-0.333.3-.649,0.616-0.955,0.941-0.334.357-.659,0.722-0.987,1.085-0.487.542-.956,1.008-1.457,1.548a3.428,3.428,0,0,1-1.92,1.23,1.748,1.748,0,0,1-1.368-.584c-0.71-.751-0.523-2.431,1.891-4.678a24.387,24.387,0,0,1,2.266-1.874A0.433,0.433,0,0,1,71.118,44a0.353,0.353,0,0,1,.19.126c0.379,0.288.788,0.536,1.15,0.844a0.971,0.971,0,0,1,.391.556c0.011,0.062.057,0.072,0.109,0.047,0.1-.047.1-0.13,0.02-0.215a11.615,11.615,0,0,1-.939-1.046,1.861,1.861,0,0,1-.307-0.544,0.218,0.218,0,0,1,.1-0.294c0.268-.2.537-0.395,0.8-0.6a14.294,14.294,0,0,0,1.887-1.658,7.116,7.116,0,0,0,.929-1.225,4.643,4.643,0,0,0,.667-2.113,4.487,4.487,0,0,0-5.411-4.62,4.484,4.484,0,0,0-3.211,2.683,4.583,4.583,0,0,0-.326,1.594,0.1,0.1,0,0,0,.066.127c0.07,0.017.088-.046,0.109-0.094a0.862,0.862,0,0,0,.075-0.432,1.7,1.7,0,0,1,.074-0.625,4.232,4.232,0,0,1,1.1-1.912A4.34,4.34,0,0,1,70.2,33.585a1.838,1.838,0,0,1,1.519.079,2.542,2.542,0,0,1,1.261,1.588,3.475,3.475,0,0,1,.119,1.666,2.974,2.974,0,0,1-.852,1.7c-0.307.3-.641,0.558-0.972,0.824-0.812.651-1.66,1.257-2.466,1.914a0.081,0.081,0,0,1-.118,0,4.905,4.905,0,0,1-.745-0.712,4.7,4.7,0,0,1-1.111-2.826,4.488,4.488,0,0,1,.3-1.906,3.128,3.128,0,0,1,.658-1.077,0.78,0.78,0,0,0,.174-0.235,0.1,0.1,0,0,0-.085-0.156,0.558,0.558,0,0,0-.143,0,0.118,0.118,0,0,0-.134.125,0.186,0.186,0,0,1-.086.156,0.787,0.787,0,0,0-.3.413,8.17,8.17,0,0,0-.464,1.626,5.3,5.3,0,0,0-.039,1.223,5.143,5.143,0,0,0,.314,1.387,5.076,5.076,0,0,0,.9,1.51,1.914,1.914,0,0,1,.3.37,0.537,0.537,0,0,1-.1.7,5.394,5.394,0,0,0-.4.42,8.679,8.679,0,0,0-1.237,1.431c-3.1,4.916.737,9.18,4.266,8.521a6.911,6.911,0,0,0,1.928-.595A5.854,5.854,0,0,0,73.78,51c0.089-.077.091-0.074,0.172,0.006,0.11,0.106.221,0.212,0.333,0.319,0.188,0.18.376,0.358,0.564,0.538a0.166,0.166,0,0,1,.053.195,0.17,0.17,0,0,1-.18.1c-0.1,0-.191,0-0.287,0a0.086,0.086,0,0,0-.108.1c0,0.109.006,0.114,0.123,0.114h6.607c0.085,0,.085-0.05.087-0.11s-0.008-.111-0.09-0.109c-0.065,0-.13,0-0.194,0a0.508,0.508,0,0,1-.364-0.147,0.1,0.1,0,0,1-.016-0.156A4.359,4.359,0,0,0,81.223,49.614ZM72.846,34.291a2.659,2.659,0,0,0-1.425-.9l-0.083-.015-0.073-.017a3.893,3.893,0,0,1,1.709.184,1.84,1.84,0,0,1,1.294,1.488,2.189,2.189,0,0,1-.134,1.162,4.162,4.162,0,0,1-.57,1.028,0.242,0.242,0,0,1-.027.031,0.051,0.051,0,0,1-.048.03c-0.03-.013-0.01-0.041-0.005-0.059a3.312,3.312,0,0,0,.1-1.025A3.153,3.153,0,0,0,72.846,34.291Zm7.508,17.432c-0.055.087-.057,0.087-0.133,0.015-0.327-.314-0.651-0.628-0.981-0.937q-0.67-.63-1.33-1.267c-0.472-.456-0.949-0.906-1.427-1.359-0.049-.046-0.025-0.069.009-0.1a2.319,2.319,0,0,1,.523-0.348,2.56,2.56,0,0,1,3.2.8,2.392,2.392,0,0,1,.465,1.328,3.073,3.073,0,0,1-.038.6c-0.005.033-.025,0.078,0.026,0.091s0.063-.033.072-0.071a2.543,2.543,0,0,0,.033-1.043,2.688,2.688,0,0,0-1.609-2.053,2.5,2.5,0,0,0-1.114-.225c-0.041,0-.084,0-0.125,0a2.021,2.021,0,0,1,.729-0.2,2.137,2.137,0,0,1,1.316.256,2.033,2.033,0,0,1,1.024,1.539A4.236,4.236,0,0,1,80.354,51.723Zm-58.186.65H13V17.626h9.063c3.9,0,6.744,2.034,6.744,6.73v5.061c0,2.608-1,4.487-3.478,5.218,2.582,0.834,3.583,2.661,3.583,5.217v5.792C28.912,50.391,26.015,52.373,22.168,52.373Zm1.265-27.756c0-1.461-.632-2.244-1.95-2.244H18.638V32.7h2.634c1.37,0,2.161-.782,2.161-2.4V24.617Zm0.053,14.764c0-1.564-.79-2.452-2.16-2.452H18.638v10.7h2.951c1.317,0,1.9-.783,1.9-2.244v-6ZM39.987,53c-5.059,0-8.378-3.392-8.378-8.244V25.243c0-4.8,3.319-8.244,8.378-8.244s8.378,3.443,8.378,8.244V44.756C48.365,49.608,45.045,53,39.987,53Zm2.74-28.174a2.741,2.741,0,1,0-5.479,0V45.174a2.741,2.741,0,1,0,5.479,0V24.826ZM60.572,38.391V52.373H54.987V38.391L48.664,17.626h5.69L58.1,32.182l3.635-14.557h5.533Zm41.149,13.983V26.548l-1.107,7.3L97.348,52.373H93.133L90.024,33.852l-1.054-7.3V52.373H84.017V17.626h7.535l3.056,17.583,0.949,6.73,1-6.73,3-17.583h7.429V52.373h-5.269Zm19.426,0-0.9-6.782h-5.11l-1.054,6.782h-5.111l5.848-34.748h6.165l5.849,34.748h-5.691ZM117.88,26.756l-2.055,14.192h3.794Zm23.8,25.617-5.9-15.755-1.95-5.322V52.373H128.77V17.626h4.953l5.48,15.913,1.791,5.374V17.626H146V52.373h-4.321Zm-76.922-2.6" transform="translate(-13 -17)"/>
</svg>
